<mxfile host="app.diagrams.net" modified="2022-02-09T00:36:35.776Z" agent="5.0 (Windows NT 10.0; Win64; x64) AppleWebKit/537.36 (KHTML, like Gecko) Chrome/97.0.4692.99 Safari/537.36" etag="EcToTJkDc8isIjMfwfh1" version="16.5.3" type="github">
  <diagram id="kgpKYQtTHZ0yAKxKKP6v" name="Page-1">
    <mxGraphModel dx="703" dy="519" grid="1" gridSize="10" guides="1" tooltips="1" connect="1" arrows="1" fold="1" page="1" pageScale="1" pageWidth="850" pageHeight="1100" math="0" shadow="0">
      <root>
        <mxCell id="0" />
        <mxCell id="1" parent="0" />
        <mxCell id="3nuBFxr9cyL0pnOWT2aG-5" value="iJukebox Pi" style="shape=umlLifeline;perimeter=lifelinePerimeter;container=1;collapsible=0;recursiveResize=0;rounded=0;shadow=0;strokeWidth=1;" parent="1" vertex="1">
          <mxGeometry x="425" y="80" width="100" height="400" as="geometry" />
        </mxCell>
        <mxCell id="PgBAwFd_ec_VBs2QUAg8-34" value="" style="html=1;points=[];perimeter=orthogonalPerimeter;" vertex="1" parent="3nuBFxr9cyL0pnOWT2aG-5">
          <mxGeometry x="45" y="80" width="10" height="140" as="geometry" />
        </mxCell>
        <mxCell id="PgBAwFd_ec_VBs2QUAg8-6" value="" style="shape=umlLifeline;participant=umlActor;perimeter=lifelinePerimeter;whiteSpace=wrap;html=1;container=1;collapsible=0;recursiveResize=0;verticalAlign=top;spacingTop=36;outlineConnect=0;" vertex="1" parent="1">
          <mxGeometry x="180" y="80" width="20" height="400" as="geometry" />
        </mxCell>
        <mxCell id="PgBAwFd_ec_VBs2QUAg8-7" value="Card Ejector" style="shape=umlLifeline;perimeter=lifelinePerimeter;whiteSpace=wrap;html=1;container=1;collapsible=0;recursiveResize=0;outlineConnect=0;" vertex="1" parent="1">
          <mxGeometry x="290" y="80" width="100" height="400" as="geometry" />
        </mxCell>
        <mxCell id="PgBAwFd_ec_VBs2QUAg8-32" value="Process Request" style="html=1;verticalAlign=bottom;endArrow=block;rounded=0;exitX=0.5;exitY=0.225;exitDx=0;exitDy=0;exitPerimeter=0;" edge="1" parent="PgBAwFd_ec_VBs2QUAg8-7">
          <mxGeometry width="80" relative="1" as="geometry">
            <mxPoint x="50" y="209.99999999999997" as="sourcePoint" />
            <mxPoint x="184.5" y="209.99999999999997" as="targetPoint" />
          </mxGeometry>
        </mxCell>
        <mxCell id="PgBAwFd_ec_VBs2QUAg8-33" value="" style="html=1;points=[];perimeter=orthogonalPerimeter;" vertex="1" parent="PgBAwFd_ec_VBs2QUAg8-7">
          <mxGeometry x="45" y="60" width="10" height="160" as="geometry" />
        </mxCell>
        <mxCell id="3nuBFxr9cyL0pnOWT2aG-8" value="Push Button Open Door" style="verticalAlign=bottom;endArrow=block;shadow=0;strokeWidth=1;" parent="1" source="PgBAwFd_ec_VBs2QUAg8-6" target="PgBAwFd_ec_VBs2QUAg8-7" edge="1">
          <mxGeometry relative="1" as="geometry">
            <mxPoint x="195" y="150" as="sourcePoint" />
            <mxPoint x="310" y="160" as="targetPoint" />
            <Array as="points">
              <mxPoint x="220" y="150" />
            </Array>
          </mxGeometry>
        </mxCell>
        <mxCell id="PgBAwFd_ec_VBs2QUAg8-26" value="Process Request" style="html=1;verticalAlign=bottom;endArrow=block;rounded=0;exitX=0.5;exitY=0.225;exitDx=0;exitDy=0;exitPerimeter=0;" edge="1" parent="1" source="PgBAwFd_ec_VBs2QUAg8-7" target="3nuBFxr9cyL0pnOWT2aG-5">
          <mxGeometry width="80" relative="1" as="geometry">
            <mxPoint x="345" y="170" as="sourcePoint" />
            <mxPoint x="440" y="170" as="targetPoint" />
          </mxGeometry>
        </mxCell>
        <mxCell id="PgBAwFd_ec_VBs2QUAg8-27" value="Open Door" style="html=1;verticalAlign=bottom;endArrow=open;dashed=1;endSize=8;rounded=0;" edge="1" parent="1" source="3nuBFxr9cyL0pnOWT2aG-5" target="PgBAwFd_ec_VBs2QUAg8-7">
          <mxGeometry relative="1" as="geometry">
            <mxPoint x="425" y="200" as="sourcePoint" />
            <mxPoint x="345" y="200" as="targetPoint" />
            <Array as="points">
              <mxPoint x="370" y="200" />
            </Array>
          </mxGeometry>
        </mxCell>
        <mxCell id="PgBAwFd_ec_VBs2QUAg8-28" value="Insert Card&amp;nbsp;" style="html=1;verticalAlign=bottom;endArrow=block;rounded=0;" edge="1" parent="1" source="PgBAwFd_ec_VBs2QUAg8-6" target="PgBAwFd_ec_VBs2QUAg8-7">
          <mxGeometry width="80" relative="1" as="geometry">
            <mxPoint x="210" y="220" as="sourcePoint" />
            <mxPoint x="290" y="220" as="targetPoint" />
            <Array as="points">
              <mxPoint x="220" y="230" />
              <mxPoint x="250" y="230" />
            </Array>
          </mxGeometry>
        </mxCell>
        <mxCell id="PgBAwFd_ec_VBs2QUAg8-31" value="Push Button Close Door" style="html=1;verticalAlign=bottom;endArrow=block;rounded=0;" edge="1" parent="1" target="PgBAwFd_ec_VBs2QUAg8-7">
          <mxGeometry width="80" relative="1" as="geometry">
            <mxPoint x="190" y="260" as="sourcePoint" />
            <mxPoint x="270" y="260" as="targetPoint" />
          </mxGeometry>
        </mxCell>
      </root>
    </mxGraphModel>
  </diagram>
</mxfile>
